<svg width="32" height="44" viewBox="0 0 32 44" fill="none" xmlns="http://www.w3.org/2000/svg">
<g clip-path="url(#clip0_1514_202)">
<path d="M30.8055 29.5165C30.91 28.907 30.946 28.1795 30.8485 27.33L30.5575 24.8045L30.369 25.0105C30.332 24.5104 30.2459 24.0152 30.112 23.532C30.6395 20.44 30.5875 16.4195 29.94 11.5045L29.8575 10.88L29.2385 10.962C25.6645 11.4415 22.293 12.9745 19.7435 14.718C18.587 14.468 17.341 14.335 16 14.335C14.658 14.335 13.413 14.468 12.257 14.718C9.707 12.975 6.3355 11.4415 2.761 10.962L2.142 10.88L2.0595 11.505C1.412 16.42 1.3605 20.4405 1.8875 23.5325C1.7539 24.0158 1.66782 24.511 1.6305 25.011L1.4425 24.805L1.1515 27.33C1.0535 28.1795 1.0895 28.907 1.194 29.5165L1 29.4745V30.92C1 33.6445 2.939 36.2405 6.46 38.2275C9.3585 39.8635 13.014 40.88 16 40.88C18.986 40.88 22.6415 39.8635 25.54 38.2275C29.0605 36.2405 31 33.6445 31 30.92V29.4745L30.8055 29.5165ZM3.218 12.3085C5.9535 12.7755 8.533 13.872 10.641 15.162C9.6685 15.501 8.775 15.9415 7.9675 16.486C7.4045 15.91 5.901 14.4995 3.9545 13.69C3.3925 15.727 3.5195 17.44 3.6885 18.4265L2.847 19.88L3.058 19.9115C2.926 20.233 2.866 20.5765 2.852 20.9215C2.6965 18.4895 2.814 15.597 3.218 12.3085Z" fill="#FDC616"/>
<path d="M15.9994 30.38C16.3714 30.38 16.8339 30.2365 17.3184 29.7825C18.0859 29.062 18.3094 28.226 18.0204 27.89C17.6149 27.417 16.3714 27.38 15.9994 27.38C15.6284 27.38 14.3834 27.417 13.9779 27.89C13.6899 28.226 13.9124 29.062 14.6809 29.7825C15.1654 30.2365 15.6279 30.38 15.9994 30.38ZM12.8614 26.807C13.1009 27.059 13.5804 26.596 13.4884 26.338C12.5589 23.7825 11.1584 22.504 9.75791 22.504C8.35741 22.504 6.95691 23.783 6.02841 26.338C5.93541 26.596 6.41491 27.0585 6.65541 26.807C7.55591 25.857 8.63391 25.478 9.75841 25.478C10.8829 25.478 11.9609 25.857 12.8614 26.807ZM22.2419 22.5045C20.8404 22.5045 19.4399 23.7835 18.5114 26.3385C18.4184 26.5965 18.8979 27.059 19.1384 26.8075C20.0399 25.8575 21.1169 25.4785 22.2419 25.4785C23.3669 25.4785 24.4429 25.8575 25.3454 26.8075C25.5839 27.0595 26.0634 26.5965 25.9724 26.3385C25.0429 23.783 23.6424 22.5045 22.2419 22.5045ZM23.5889 31.552C21.8564 31.221 19.2979 30.88 15.9994 30.88C12.7009 30.88 10.1419 31.221 8.41091 31.552C7.73591 31.681 7.49991 32.1835 7.49991 32.585C7.49991 37.38 8.84891 38.88 14.3809 38.88H17.6189C23.1504 38.88 24.4999 37.38 24.4999 32.585C24.4999 32.1835 24.2624 31.681 23.5889 31.552ZM15.9999 37.88C13.5359 37.88 10.0239 37.88 10.1179 36.8535C10.1344 36.67 10.1764 36.452 10.2299 36.2155C10.2904 35.9525 10.3379 35.88 10.7619 35.88H21.2374C21.6624 35.88 21.7099 35.9525 21.7694 36.2155C21.8239 36.4525 21.8639 36.67 21.8809 36.8535C21.9754 37.88 18.4629 37.88 15.9999 37.88ZM22.5419 32.9645L22.1124 34.419C22.0369 34.6725 21.8184 34.88 21.6239 34.88H10.3754C10.1824 34.88 9.96291 34.6725 9.88741 34.419L9.45691 32.9645C9.38141 32.711 9.47741 32.473 9.66891 32.4355C9.66891 32.4355 12.5244 31.88 15.9999 31.88C19.4734 31.88 22.3299 32.4355 22.3299 32.4355C22.5214 32.474 22.6169 32.711 22.5419 32.9645Z" fill="#FDC616"/>
</g>
<g clip-path="url(#clip1_1514_202)">
<path d="M5.59011 19.5371C6.33661 18.0791 7.23861 17.0681 8.23011 16.3681C7.32661 15.7826 5.74711 15.5771 4.98061 15.5771C4.98061 15.5771 4.07211 18.4826 5.59011 19.5371ZM26.4091 19.5361C27.9251 18.4816 27.0186 15.5771 27.0186 15.5771C26.2506 15.5771 24.6721 15.7821 23.7676 16.3676C24.7601 17.0681 25.6621 18.0781 26.4091 19.5361ZM21.0606 18.4166C19.9526 14.3426 12.0316 14.2641 10.9391 18.4436C13.1336 16.6061 18.8671 16.6081 21.0606 18.4166Z" fill="#A4BCCC"/>
<path d="M12.5339 20.0481C14.3379 18.5396 17.6609 18.5436 19.4654 20.0301C18.7169 17.2846 13.2724 17.2266 12.5339 20.0481Z" fill="#A4BCCC"/>
<path d="M31 30.5155L30.9785 29.671C30.8775 25.625 28.653 23.4055 28.1295 22.9375C27.9787 22.301 27.7951 21.6726 27.5795 21.055C30.2715 18.77 28.676 13.5595 28.6045 13.332L28.5005 13H28.1425C26.411 13 23.1555 13.4885 21.4655 14.785C19.934 14.362 18.3475 14.325 16.8475 14.325L16 14.3265L15.1515 14.325C13.6515 14.325 12.0645 14.362 10.5335 14.785C8.843 13.4885 5.587 13 3.856 13H3.4985L3.394 13.332C3.322 13.5595 1.727 18.77 4.419 21.055C4.2034 21.6724 4.01982 22.3006 3.869 22.937C3.347 23.404 1.121 25.623 1.0205 29.671L1 30.5155L1.9905 29.947C1.705 31.165 1.526 33.1725 2.4895 35.449L2.7905 36.159L4.08 34.694C4.4765 35.88 5.527 37.892 8.2365 39.118L8.8445 39.3935L9.0015 38.062C9.636 38.431 10.694 38.9545 12.102 39.343C12.324 40.0775 12.805 40.968 13.835 41.7765L15.3915 43L15.3975 42.322C15.4395 42.3467 15.4823 42.3705 15.526 42.3935L15.993 42.6435L16.4605 42.3935C16.5038 42.3702 16.5465 42.3463 16.5885 42.322L16.5915 42.6895L18.039 41.8535C18.3286 41.6851 18.5929 41.4765 18.824 41.234L19.2165 41.9555L20.122 40.6825C20.5525 40.0775 20.832 39.5105 21.0035 38.988C21.6939 38.7374 22.3612 38.4274 22.998 38.0615L23.1545 39.393L23.763 39.1175C26.4725 37.8915 27.5225 35.8795 27.9195 34.6935L29.2085 36.1585L29.5095 35.4485C30.4725 33.172 30.2935 31.164 30.0085 29.946L31 30.5155ZM23.5285 26.1425C24.167 26.1425 24.6855 25.6155 24.6855 24.9655C24.6855 24.585 24.506 24.296 24.2305 24.119C24.9395 24.167 24.9805 24.4335 25.063 25.0985C25.4095 27.908 20.427 28.3205 20.08 25.512C19.9545 24.4955 19.9525 24.4065 22.4355 24.199C22.546 24.1895 22.6465 24.182 22.7475 24.174C22.518 24.3535 22.371 24.622 22.371 24.9655C22.371 25.6155 22.8885 26.1425 23.5285 26.1425ZM19.957 36.1145C19.8935 36.1145 19.8575 36.1115 19.8575 36.1115C19.134 34.795 18.0665 34.532 16.6815 35.122C16.5805 34.518 16.4625 33.596 16.4255 32.8095C18.351 32.693 19.5525 31.8275 19.6815 31.3925L19.694 31.3885C19.694 31.3885 20.117 30.318 20.105 28.7045C23.7675 35.077 20.6505 36.1145 19.957 36.1145ZM28.8875 34.3525L27.3095 32.559L27.1895 33.639C27.186 33.6675 26.854 36.3425 23.958 37.964L23.7695 36.3605L23.089 36.879C23.076 36.889 22.4075 37.386 21.218 37.8875C21.2438 37.5282 21.2209 37.1671 21.15 36.814C21.6829 36.5996 22.1286 36.2129 22.416 35.7155C22.7285 35.181 22.8625 34.5205 22.827 33.7365C23.288 33.88 23.7275 33.9555 24.1425 33.9555C25.0545 33.9555 25.8365 33.613 26.4655 32.9395C27.5275 31.8035 27.9965 29.845 28.1845 27.9765L28.7275 29.118C28.7395 29.142 29.8055 31.442 28.8875 34.3525ZM28.2 27.823C28.3145 26.5865 28.3105 25.4015 28.278 24.534C28.923 25.397 29.7245 26.832 29.9525 28.8275L28.2 27.823Z" fill="#A4BCCC"/>
</g>
<g clip-path="url(#clip2_1514_202)">
<path d="M30.8055 29.5165C30.91 28.907 30.946 28.1795 30.8485 27.33L30.5575 24.8045L30.369 25.0105C30.332 24.5104 30.2459 24.0152 30.112 23.532C30.6395 20.44 30.5875 16.4195 29.94 11.5045L29.8575 10.88L29.2385 10.962C25.6645 11.4415 22.293 12.9745 19.7435 14.718C18.587 14.468 17.341 14.335 16 14.335C14.658 14.335 13.413 14.468 12.257 14.718C9.707 12.975 6.3355 11.4415 2.761 10.962L2.142 10.88L2.0595 11.505C1.412 16.42 1.3605 20.4405 1.8875 23.5325C1.7539 24.0158 1.66782 24.511 1.6305 25.011L1.4425 24.805L1.1515 27.33C1.0535 28.1795 1.0895 28.907 1.194 29.5165L1 29.4745V30.92C1 33.6445 2.939 36.2405 6.46 38.2275C9.3585 39.8635 13.014 40.88 16 40.88C18.986 40.88 22.6415 39.8635 25.54 38.2275C29.0605 36.2405 31 33.6445 31 30.92V29.4745L30.8055 29.5165ZM28.782 12.3085C29.1855 15.5965 29.3035 18.489 29.147 20.921C29.1335 20.5765 29.073 20.2325 28.941 19.911L29.1525 19.88L28.3115 18.427C28.4805 17.4415 28.6075 15.728 28.046 13.6905C26.0985 14.5 24.596 15.91 24.0325 16.4865C23.226 15.9415 22.3325 15.501 21.3595 15.1625C23.467 13.872 26.047 12.7755 28.782 12.3085ZM3.218 12.3085C5.9535 12.7755 8.533 13.872 10.641 15.162C9.6685 15.501 8.775 15.9415 7.9675 16.486C7.4045 15.91 5.901 14.4995 3.9545 13.69C3.3925 15.727 3.5195 17.44 3.6885 18.4265L2.847 19.88L3.058 19.9115C2.926 20.233 2.866 20.5765 2.852 20.9215C2.6965 18.4895 2.814 15.597 3.218 12.3085ZM16 39.708C10.5165 39.708 2.1535 35.959 2.1535 30.92L3.0775 31.119C3.0775 31.119 2.0085 29.9645 2.2965 27.4665L3.1945 28.451C3.1945 28.451 2.2965 25.916 3.0775 23.577L4.072 24.321C4.072 24.321 3.77 23.369 4.0475 22.7175L4.477 23.0595C4.477 23.0595 3.459 20.8145 4.4055 19.954C4.789 21.24 5.242 21.2595 5.268 21.2595H5.2695C5.2695 21.2595 4.6965 20.2675 5.1425 19.8515C5.325 20.1505 5.495 20.252 5.632 20.252C5.8375 20.252 5.9695 20.0235 5.9585 19.8885C5.934 19.5905 6.0485 19.1695 4.7105 18.9715C4.895 18.653 5.307 18.5585 5.735 18.5585C6.3725 18.5585 7.0445 18.7705 7.0445 18.7705C7.0445 18.7705 7.0015 18.0995 6.1175 18.0995L6.064 18.1005C6.342 17.6835 6.749 17.5615 7.129 17.5615C7.657 17.5615 8.132 17.796 8.132 17.796L8.129 17.805C8.48728 17.5342 8.86384 17.2884 9.256 17.0695C9.5665 17.7785 9.985 18.1015 10.497 19.049C11.2305 17.6965 11.7665 16.9105 12.0665 15.962C12.5234 15.8466 12.9858 15.7543 13.452 15.6855C13.8395 17.4305 14.7295 18.781 15.999 21.124C17.287 18.746 18.165 17.416 18.5455 15.6845C19.031 15.755 19.489 15.8505 19.932 15.962C20.2345 16.921 20.776 17.714 21.4985 19.049C22.017 18.092 22.435 17.7715 22.7425 17.0695C23.1351 17.2877 23.5117 17.5335 23.8695 17.805L23.8665 17.796C23.8665 17.796 24.342 17.5615 24.8695 17.5615C25.2495 17.5615 25.6565 17.6835 25.935 18.1005L25.8815 18.0995C24.9975 18.0995 24.9545 18.7705 24.9545 18.7705C24.9545 18.7705 25.6265 18.5575 26.264 18.5585C26.691 18.5585 27.104 18.653 27.2875 18.9715C25.9505 19.1695 26.065 19.5905 26.0405 19.8885C26.03 20.0235 26.1615 20.252 26.3665 20.252C26.503 20.252 26.673 20.1505 26.856 19.8515C27.3025 20.2675 26.729 21.2595 26.729 21.2595H26.731C26.7565 21.2595 27.2095 21.24 27.5925 19.954C28.54 20.8145 27.522 23.0595 27.522 23.0595L27.9515 22.7175C28.229 23.369 27.927 24.321 27.927 24.321L28.921 23.577C29.7015 25.916 28.804 28.451 28.804 28.451L29.7015 27.4665C29.9905 29.9645 28.921 31.119 28.921 31.119L29.845 30.92C29.8455 35.959 21.4825 39.708 16 39.708Z" fill="#0C3453"/>
<path d="M15.9994 30.38C16.3714 30.38 16.8339 30.2365 17.3184 29.7825C18.0859 29.062 18.3094 28.226 18.0204 27.89C17.6149 27.417 16.3714 27.38 15.9994 27.38C15.6284 27.38 14.3834 27.417 13.9779 27.89C13.6899 28.226 13.9124 29.062 14.6809 29.7825C15.1654 30.2365 15.6279 30.38 15.9994 30.38ZM12.8614 26.807C13.1009 27.059 13.5804 26.596 13.4884 26.338C12.5589 23.7825 11.1584 22.504 9.75791 22.504C8.35741 22.504 6.95691 23.783 6.02841 26.338C5.93541 26.596 6.41491 27.0585 6.65541 26.807C7.55591 25.857 8.63391 25.478 9.75841 25.478C10.8829 25.478 11.9609 25.857 12.8614 26.807ZM22.2419 22.5045C20.8404 22.5045 19.4399 23.7835 18.5114 26.3385C18.4184 26.5965 18.8979 27.059 19.1384 26.8075C20.0399 25.8575 21.1169 25.4785 22.2419 25.4785C23.3669 25.4785 24.4429 25.8575 25.3454 26.8075C25.5839 27.0595 26.0634 26.5965 25.9724 26.3385C25.0429 23.783 23.6424 22.5045 22.2419 22.5045ZM23.5889 31.552C21.8564 31.221 19.2979 30.88 15.9994 30.88C12.7009 30.88 10.1419 31.221 8.41091 31.552C7.73591 31.681 7.49991 32.1835 7.49991 32.585C7.49991 37.38 8.84891 38.88 14.3809 38.88H17.6189C23.1504 38.88 24.4999 37.38 24.4999 32.585C24.4999 32.1835 24.2624 31.681 23.5889 31.552ZM15.9999 37.88C13.5359 37.88 10.0239 37.88 10.1179 36.8535C10.1344 36.67 10.1764 36.452 10.2299 36.2155C10.2904 35.9525 10.3379 35.88 10.7619 35.88H21.2374C21.6624 35.88 21.7099 35.9525 21.7694 36.2155C21.8239 36.4525 21.8639 36.67 21.8809 36.8535C21.9754 37.88 18.4629 37.88 15.9999 37.88ZM22.5419 32.9645L22.1124 34.419C22.0369 34.6725 21.8184 34.88 21.6239 34.88H10.3754C10.1824 34.88 9.96291 34.6725 9.88741 34.419L9.45691 32.9645C9.38141 32.711 9.47741 32.473 9.66891 32.4355C9.66891 32.4355 12.5244 31.88 15.9999 31.88C19.4734 31.88 22.3299 32.4355 22.3299 32.4355C22.5214 32.474 22.6169 32.711 22.5419 32.9645Z" fill="#0C3453"/>
</g>
<g clip-path="url(#clip3_1514_202)">
<path d="M5.59011 19.5371C6.33661 18.0791 7.23861 17.0681 8.23011 16.3681C7.32661 15.7826 5.74711 15.5771 4.98061 15.5771C4.98061 15.5771 4.07211 18.4826 5.59011 19.5371ZM26.4091 19.5361C27.9251 18.4816 27.0186 15.5771 27.0186 15.5771C26.2506 15.5771 24.6721 15.7821 23.7676 16.3676C24.7601 17.0681 25.6621 18.0781 26.4091 19.5361ZM21.0606 18.4166C19.9526 14.3426 12.0316 14.2641 10.9391 18.4436C13.1336 16.6061 18.8671 16.6081 21.0606 18.4166Z" fill="#0C3453"/>
<path d="M12.5339 20.0481C14.3379 18.5396 17.6609 18.5436 19.4654 20.0301C18.7169 17.2846 13.2724 17.2266 12.5339 20.0481Z" fill="#0C3453"/>
<path d="M31 30.5155L30.9785 29.671C30.8775 25.625 28.653 23.4055 28.1295 22.9375C27.9787 22.301 27.7951 21.6726 27.5795 21.055C30.2715 18.77 28.676 13.5595 28.6045 13.332L28.5005 13H28.1425C26.411 13 23.1555 13.4885 21.4655 14.785C19.934 14.362 18.3475 14.325 16.8475 14.325L16 14.3265L15.1515 14.325C13.6515 14.325 12.0645 14.362 10.5335 14.785C8.843 13.4885 5.587 13 3.856 13H3.4985L3.394 13.332C3.322 13.5595 1.727 18.77 4.419 21.055C4.2034 21.6724 4.01982 22.3006 3.869 22.937C3.347 23.404 1.121 25.623 1.0205 29.671L1 30.5155L1.9905 29.947C1.705 31.165 1.526 33.1725 2.4895 35.449L2.7905 36.159L4.08 34.694C4.4765 35.88 5.527 37.892 8.2365 39.118L8.8445 39.3935L9.0015 38.062C9.636 38.431 10.694 38.9545 12.102 39.343C12.324 40.0775 12.805 40.968 13.835 41.7765L15.3915 43L15.3975 42.322C15.4395 42.3467 15.4823 42.3705 15.526 42.3935L15.993 42.6435L16.4605 42.3935C16.5038 42.3702 16.5465 42.3463 16.5885 42.322L16.5915 42.6895L18.039 41.8535C18.3286 41.6851 18.5929 41.4765 18.824 41.234L19.2165 41.9555L20.122 40.6825C20.5525 40.0775 20.832 39.5105 21.0035 38.988C21.6939 38.7374 22.3612 38.4274 22.998 38.0615L23.1545 39.393L23.763 39.1175C26.4725 37.8915 27.5225 35.8795 27.9195 34.6935L29.2085 36.1585L29.5095 35.4485C30.4725 33.172 30.2935 31.164 30.0085 29.946L31 30.5155ZM4.225 13.945C5.7815 14.0085 8.746 14.459 10.095 15.653L10.3005 15.835L10.5665 15.7535C12.0455 15.3005 13.642 15.2625 15.151 15.2625L16 15.2635L16.8475 15.262C18.3565 15.262 19.953 15.3 21.4325 15.753L21.698 15.8345L21.9035 15.6525C23.2525 14.4585 26.2175 14.008 27.7735 13.9445C28.0755 15.121 28.878 19.021 26.727 20.516L26.428 20.724L26.5545 21.0585C26.818 21.755 27.045 22.53 27.239 23.3735C27.2905 23.9775 27.4835 26.704 27.058 29.1145C26.1045 32.2345 24.2725 32.808 22.6735 32.598C22.436 31.4895 21.9305 30.1835 21.159 28.6745C23.3605 29.503 26.4285 28.157 26.1245 25.068C25.947 23.2685 25.9205 23.1145 22.391 23.478C18.859 23.843 18.8625 24.001 19.0405 25.7985C19.084 26.274 19.2179 26.7368 19.435 27.162C19.3265 28.3805 19.1335 30.109 18.858 30.958C17.317 30.638 14.638 30.6535 13.1265 30.9625C12.7865 30.0405 12.61 28.3985 12.523 27.2155C12.7405 26.816 12.89 26.346 12.945 25.799C13.122 24.0015 13.126 23.844 9.5945 23.4785C6.065 23.1145 6.038 23.269 5.8615 25.0685C5.5535 28.1845 8.679 29.5275 10.8845 28.652C10.1975 30.081 9.7415 31.389 9.525 32.566C7.8805 32.8505 5.93 32.3665 4.9375 29.106C4.515 26.702 4.7065 23.9875 4.758 23.377C4.9525 22.533 5.1795 21.756 5.4435 21.0585L5.57 20.724L5.2715 20.516C3.1245 19.0245 3.9245 15.1215 4.225 13.945ZM23.5285 26.1425C24.167 26.1425 24.6855 25.6155 24.6855 24.9655C24.6855 24.585 24.506 24.296 24.2305 24.119C24.9395 24.167 24.9805 24.4335 25.063 25.0985C25.4095 27.908 20.427 28.3205 20.08 25.512C19.9545 24.4955 19.9525 24.4065 22.4355 24.199C22.546 24.1895 22.6465 24.182 22.7475 24.174C22.518 24.3535 22.371 24.622 22.371 24.9655C22.371 25.6155 22.8885 26.1425 23.5285 26.1425ZM10.348 26.1425C10.988 26.1425 11.5045 25.6155 11.5045 24.9655C11.5045 24.754 11.4455 24.573 11.35 24.421C12.011 24.5855 11.986 24.8535 11.9055 25.512C11.5595 28.3205 6.575 27.908 6.9225 25.0985C7.047 24.0835 7.0675 23.9945 9.5325 24.1975C9.3215 24.377 9.1905 24.6385 9.1905 24.9655C9.1915 25.6155 9.709 26.1425 10.348 26.1425ZM2.0465 28.8265C2.274 26.8315 3.0755 25.3965 3.7195 24.534C3.687 25.4015 3.6825 26.586 3.7975 27.822L2.0465 28.8265ZM8.9085 36.879L8.2285 36.365L8.04 37.965C5.1645 36.3595 4.823 33.755 4.8095 33.6395L4.689 32.5595L3.1105 34.353C2.193 31.4425 3.2585 29.143 3.2695 29.119L3.8135 27.9905C4.003 29.855 4.4715 31.806 5.531 32.9395C6.1605 33.6135 6.942 33.955 7.854 33.955H7.8555C8.337 33.955 8.848 33.856 9.3905 33.666C9.332 34.672 9.47 35.57 9.812 36.354C10.0858 36.9882 10.5057 37.5486 11.0375 37.9895C9.6885 37.455 8.923 36.889 8.9085 36.879ZM19.326 40.1505L18.872 39.316C18.872 39.316 18.5375 40.474 17.543 41.049L17.5335 39.9455C17.5335 39.9455 17.128 40.9655 15.9925 41.5735C14.857 40.9655 14.452 39.9455 14.452 39.9455L14.442 41.049C12.625 39.622 12.897 37.9455 12.897 37.9455C12.897 37.9455 7.9325 36.59 11.801 28.672C11.66 30.0775 12.2925 31.389 12.2925 31.389L12.3035 31.3925C12.431 31.829 13.6445 32.699 15.579 32.811C15.6195 33.7585 15.7725 34.8775 15.897 35.5315C15.0055 36.063 14.0055 36.8765 12.897 37.9455C15.6185 37.3525 17.878 34.646 19.8465 36.105C20.2705 36.782 20.7305 38.1765 19.326 40.1505ZM19.957 36.1145C19.8935 36.1145 19.8575 36.1115 19.8575 36.1115C19.134 34.795 18.0665 34.532 16.6815 35.122C16.5805 34.518 16.4625 33.596 16.4255 32.8095C18.351 32.693 19.5525 31.8275 19.6815 31.3925L19.694 31.3885C19.694 31.3885 20.117 30.318 20.105 28.7045C23.7675 35.077 20.6505 36.1145 19.957 36.1145ZM28.8875 34.3525L27.3095 32.559L27.1895 33.639C27.186 33.6675 26.854 36.3425 23.958 37.964L23.7695 36.3605L23.089 36.879C23.076 36.889 22.4075 37.386 21.218 37.8875C21.2438 37.5282 21.2209 37.1671 21.15 36.814C21.6829 36.5996 22.1286 36.2129 22.416 35.7155C22.7285 35.181 22.8625 34.5205 22.827 33.7365C23.288 33.88 23.7275 33.9555 24.1425 33.9555C25.0545 33.9555 25.8365 33.613 26.4655 32.9395C27.5275 31.8035 27.9965 29.845 28.1845 27.9765L28.7275 29.118C28.7395 29.142 29.8055 31.442 28.8875 34.3525ZM28.2 27.823C28.3145 26.5865 28.3105 25.4015 28.278 24.534C28.923 25.397 29.7245 26.832 29.9525 28.8275L28.2 27.823Z" fill="#0C3453"/>
</g>
<rect x="15.7056" y="14.4609" width="0.294434" height="27.5391" fill="#0C3453"/>
<path d="M19.2689 10.0261C20.133 9.5272 21.6272 12.032 23.9655 10.682C25.7265 9.66526 26.0077 7.0674 25.0197 5.35612C24.0763 3.72216 22.7906 3.06511 21.105 2.93969C20.8477 2.92055 20.6198 3.10529 20.5876 3.36135L20.4121 4.75646C20.3793 5.01748 20.5615 5.25651 20.8217 5.2949C21.787 5.43729 22.3854 5.5896 22.8523 6.39828C23.2103 7.0185 23.2541 8.01616 22.6526 8.3634C22.198 8.62591 21.7477 8.38538 21.0508 7.97119C20.2381 7.4882 19.1941 6.83082 17.9476 7.55052L17.6456 7.72486C17.4145 7.85829 17.3353 8.15385 17.4688 8.38495L18.3878 9.97683C18.5213 10.2079 18.8168 10.2871 19.0479 10.1537L19.2689 10.0261Z" fill="#0C3453"/>
<path d="M14.5107 11.1541C14.977 11.9617 16.0134 12.2394 16.821 11.7731C17.6287 11.3068 17.9064 10.2704 17.4401 9.46279C16.9738 8.65515 15.9374 8.37745 15.1297 8.84374C14.3221 9.31003 14.0444 10.3464 14.5107 11.1541Z" fill="#0C3453"/>
<path d="M17.3779 7.31529C17.3779 6.31748 20.2942 6.27592 20.2942 3.57584C20.2942 1.54244 18.185 0 16.209 0C14.3223 0 13.1104 0.784872 12.159 2.18195C12.0137 2.39525 12.0598 2.68494 12.2655 2.84086L13.3859 3.69044C13.5955 3.84938 13.8936 3.81109 14.057 3.60491C14.663 2.84013 15.094 2.39811 16.0278 2.39811C16.744 2.39811 17.6299 2.85906 17.6299 3.55353C17.6299 4.07855 17.1965 4.34819 16.4893 4.74463C15.6646 5.20699 14.5734 5.78239 14.5734 7.22179V7.57047C14.5734 7.83733 14.7897 8.05369 15.0566 8.05369H16.8947C17.1616 8.05369 17.3779 7.83733 17.3779 7.57047V7.31529Z" fill="#0C3453"/>
<path d="M15.9757 12C16.9083 12 17.667 11.2413 17.667 10.3087C17.667 9.37615 16.9083 8.61745 15.9757 8.61745C15.0431 8.61745 14.2844 9.37615 14.2844 10.3087C14.2844 11.2413 15.0431 12 15.9757 12Z" fill="#0C3453"/>
<path d="M14.0871 7.59961C13.2229 7.1007 14.6451 4.55435 12.3067 3.20431C10.5458 2.18761 8.15537 3.24303 7.16736 4.95431C6.22399 6.58827 6.29779 8.03019 7.03198 9.55268C7.14408 9.78512 7.418 9.89007 7.65585 9.78993L8.95183 9.2444C9.19429 9.14232 9.31018 8.86501 9.21331 8.62044C8.85398 7.71327 8.68671 7.11894 9.1536 6.31025C9.51169 5.69003 10.3538 5.15332 10.9552 5.50056C11.4099 5.76307 11.4267 6.27323 11.4165 7.08387C11.4046 8.02922 11.3572 9.26199 12.6038 9.98169L12.9058 10.156C13.1369 10.2895 13.4324 10.2103 13.5659 9.97916L14.4849 8.38729C14.6184 8.15618 14.5392 7.86063 14.3081 7.7272L14.0871 7.59961Z" fill="#0C3453"/>
<path d="M17.443 11.1564C17.9093 10.3487 17.6316 9.31233 16.824 8.84604C16.0163 8.37975 14.9799 8.65745 14.5136 9.46509C14.0473 10.2727 14.325 11.3091 15.1327 11.7754C15.9403 12.2417 16.9767 11.964 17.443 11.1564Z" fill="#0C3453"/>
<defs>
<clipPath id="clip0_1514_202">
<rect width="16" height="32" fill="white" transform="translate(16 9.88)"/>
</clipPath>
<clipPath id="clip1_1514_202">
<rect width="16" height="32" fill="white" transform="translate(0 12)"/>
</clipPath>
<clipPath id="clip2_1514_202">
<rect width="16" height="32" fill="white" transform="translate(16 9.88)"/>
</clipPath>
<clipPath id="clip3_1514_202">
<rect width="16" height="32" fill="white" transform="translate(0 12)"/>
</clipPath>
</defs>
</svg>
